<?xml version="1.0" encoding="UTF-8"?>
<svg id="Livello_2" data-name="Livello 2" xmlns="http://www.w3.org/2000/svg" viewBox="0 0 654.13 330.89">
  <defs>
    <style>
      .cls-1 {
        fill: #fff;
      }

      .cls-2 {
        font-family: AgencyFB-Reg, 'Agency FB';
        font-size: 86.51px;
      }

      .cls-2, .cls-3 {
        fill: #484848;
      }

      .cls-4 {
        fill: #931916;
      }
    </style>
  </defs>
  <g id="Livello_1-2" data-name="Livello 1">
    <g>
      <rect class="cls-1" width="654.13" height="330.89" rx="19.48" ry="19.48"/>
      <rect class="cls-1" x="77.59" y="159.32" width="72.05" height="68.56" rx="15.26" ry="15.26"/>
      <g>
        <g>
          <path class="cls-4" d="m112.51,97.24s.73-9.32,25.58-9.6c26.76-.29,27.23,10.89,27.23,10.89,0,0,1.05,42.16,2.28,45.85,2.05,9.37,4.98,14.99,4.98,14.99,0,0,4.51,9.25-.94,27.52-5.45,18.27-2.81,32.14-2.81,32.14,0,0,4.22,13.7-6.67,11.77-10.89-1.93-11.94-10.01-11.94-10.01l-.7-31.79-35.66-19.67-36.18,19.5-.53,31.09s0,7.2-7.38,10.19c-7.38,2.99-10.54-3.51-10.54-3.51l.18-23.36s1.23-7.38-5.45-1.41c-6.67,5.97-19.32,9.84-19.32,9.84-.86.29-12.4,3.69-15.31-6.67-.04-.09-.77-2.71,3.37-5.8,4.57-3.41,29.33-19.85,29.33-19.85,0,0,6.32-4.39-2.11-3.69-8.43.7-21.61,6.19-27.58,1.93-7.9-5.8-.35-10.54-.35-10.54l36.36-13.35s10.71-1.93-3.16-4.22c-13.88-2.28-23.51.12-22.37-9.66.88-6.67,3.92-6.67,3.92-6.67l50.24-.35s26.17-3.16,25.65-18.44c-.53-15.28-.11-17.1-.11-17.1Z"/>
          <polygon class="cls-3" points="105.07 205.92 105.24 227.87 122.63 227.87 122.28 206.09 105.07 205.92"/>
        </g>
        <text class="cls-2" transform="translate(216.25 202.59)"><tspan x="0" y="0">C’È CAMPO ODV </tspan></text>
      </g>
    </g>
  </g>
</svg>